<svg xmlns="http://www.w3.org/2000/svg" width="500" height="500" version="1.0" viewBox="160 430 670 140" fill="#FFFFFF" style="background-color: #000000;">
  <rect width="100%" height="100%" fill="#FFFFFF"/>
  <path d="M214.5 449.2c-4 1.4-8.2 5.4-8.8 8.4-.2 1.4.2 8.1.9 15 1.7 17.1 1 18.6-9.4 20-4.8.6-5.2.9-5.2 3.4s.4 2.8 5.2 3.4c10.4 1.4 11.1 2.9 9.4 20-.7 6.9-1.1 13.6-.9 15 1 5 8.6 9.6 15.9 9.6 3.1 0 3.4-.3 3.4-2.9s-.4-2.9-4.4-3.5c-7.7-1.2-8.1-2.3-6.6-18.5.7-7.6 1-15.1.6-16.6-.4-1.5-2.1-3.5-4.2-4.7l-3.6-2.1 2.9-1.2c5.1-2.2 5.8-5.6 4.3-21.7l-1.3-14.1 2.3-1.9c1.2-1 4-2.1 6.1-2.4 3.5-.6 3.9-1 3.9-3.5 0-2.7-.3-2.9-3.7-2.8-2.1 0-5.1.5-6.8 1.1zm559.5 1.7c0 2.5.4 2.9 3.9 3.5 2.1.3 4.9 1.4 6.1 2.4l2.3 1.9-1.3 14.7c-1.3 14.2-1.3 14.8.7 17.4 1.1 1.5 3.3 3.3 4.9 4.1l2.9 1.5-3.2.8c-6.2 1.6-6.8 3.9-5.4 20.9 1.5 17.3 1.2 18.3-6.5 19.5-4 .6-4.4.9-4.4 3.5s.3 2.9 3.4 2.9c7.3 0 14.9-4.6 15.9-9.6.2-1.3-.1-7.9-.8-14.6-.7-6.9-.9-13.2-.5-14.4 1.3-3.2 4.8-5.3 10.2-6 4.4-.6 4.8-.9 4.8-3.4s-.4-2.8-4.8-3.4c-5.4-.7-8.9-2.8-10.2-6-.4-1.2-.2-7.5.5-14.4.7-6.7 1-13.3.8-14.6-1-5-8.6-9.6-15.9-9.6-3.1 0-3.4.3-3.4 2.9zm-460 42.5V531h24v-18h9.8c11.7 0 16.1-1.1 20.8-5.2 5.9-5.2 7.7-9.9 8.2-21.5.5-12-1.1-18.2-6.1-23.3-5.9-6-7.8-6.4-33.4-6.8l-23.3-.4v37.6zm36.1-17.4c1.6.9 1.9 2.2 1.9 8.5 0 8.7-.8 9.5-8.9 9.5H338v-19h5.1c2.8 0 5.9.5 7 1zm34.9 17.5V531h24v-16.3l.1-16.2 1.8 5c1 2.7 4.2 9.9 7 16l5 11 13 .3 13 .3-9.4-19.2-9.4-19.2 8-16c4.5-8.8 8.5-17.1 9-18.4l.9-2.3h-25.5l-5.8 12.3c-3.1 6.7-6.1 13.5-6.6 15.2-.7 2.1-1-1.6-1-12.3L409 456h-24v37.5zm71 .1v37.5l25.3-.3c28.9-.3 30.1-.7 34.4-8.8 2.1-3.9 2.4-5.6 2.1-12.5-.4-9.6-2.7-13.7-9.6-16.7l-4.4-2 2.8-1.4c4-2.1 6.1-5.1 7.5-10.7 2.5-10.5-1.8-19.4-10.5-21.6-2.6-.6-13.5-1.1-26-1.1H456v37.6zm34.8-20.4c.7.7 1.2 2.6 1.2 4.3 0 4.3-1.6 5.5-7.2 5.5H480v-11h4.8c2.6 0 5.3.5 6 1.2zm3 31c1.1 2.3 1.1 3.3 0 5.5-1.2 2.6-1.9 2.8-7.6 3.1l-6.2.3v-12.2l6.2.3c5.7.3 6.4.5 7.6 3zM696 473.1v15.1l-3.4-3c-6.6-5.7-15.1-6.6-23.5-2.2-8.1 4.1-12.1 11.7-12.1 23.1 0 9.3 1.5 13.4 6.8 18.9 8.5 8.8 20.4 9.4 28.8 1.5 2-1.9 3.8-3.5 4-3.5.2 0 .4 1.8.4 4 0 3.8.2 4 3 4h3v-73h-7v15.1zm-7.9 16.2c5.2 3.4 8.1 9.9 7.7 17.2-.7 11.5-6.6 18.5-15.8 18.5-5.6 0-10.4-2.9-13.4-8-3-5-3-17 0-22 4.6-7.8 14.4-10.5 21.5-5.7zm-138.3-24c-6.5 1.9-11.3 5.3-15.3 11.2-4.5 6.7-5.8 12.4-5.3 24.2.4 11.2 2.4 16.6 8.5 22.8 10.3 10.6 29.2 11.2 40 1.3 4.9-4.6 7.9-9.6 6.6-10.9-.5-.5-2.2-1.1-3.8-1.4-2.7-.5-3.2-.2-5.3 3.4-3.1 5.6-8.9 8.5-16.8 8.5-13.4-.1-21.6-9.8-21.7-25.9-.1-9.4 2-15.3 7.3-20.6 9.4-9.4 25-8.7 30.5 1.4l1.8 3.4 3.9-1.5c2.1-.8 3.8-1.9 3.8-2.3 0-2.1-7.1-9.6-11.1-11.6-5.7-3-16.4-3.9-23.1-2zm62.3 16.1c-9.5 3.1-15.4 12.3-15.5 24.1 0 8.9 1.7 13.7 6.7 19.2 6.8 7.4 18.9 9.3 28.4 4.5 8.3-4.3 12.3-11.8 12.3-23.2 0-8.1-2.1-14.4-6.3-18.8-5.5-6-17-8.5-25.6-5.8zm17 7.9c4.9 3.2 7.4 8.8 7.4 16.7 0 12-5.9 19-16 19-6.6 0-11.2-2.9-14.2-9-4.6-9-2-21.7 5.6-26.7 4.7-3.2 12.5-3.2 17.2 0zm105.5-7.9c-9.6 3.6-14.7 10.8-15.4 21.9-.5 8.7.8 14 4.8 19.5 4.5 6.2 9.9 8.7 19 8.7 8.4 0 14.1-2.3 17.9-7.1 2.7-3.4 2.6-3.8-.5-5.3-2.3-1-3-.8-6 1.8-3.8 3.4-8.6 4.6-14.6 3.8-6.9-.9-11.3-5.6-13.2-14l-.6-2.7h38v-6.1c0-8.1-3.6-15-9.7-18.6-5.4-3.1-14.1-4-19.7-1.9zm15.1 7.3c2.4 1.1 4.2 3 5.4 5.7 3.1 6.8 3.5 6.6-13.2 6.6h-15.1l.6-2.8c2.2-9.2 13.2-13.9 22.3-9.5zm-513 32.4c-1.6 1.2-2.7 3-2.7 4.4 0 3.1 4.6 6.7 7.4 5.9 2.7-.8 4.6-3.2 4.6-5.9 0-5.1-5.3-7.6-9.3-4.4zm21.3-.3c-1.4 1.1-2.2 2.9-2.2 4.7 0 2.8 3.1 6.5 5.6 6.5 2.9 0 5.6-3.2 5.6-6.5 0-2.4-.7-3.9-2.2-4.9-2.9-2-4.1-2-6.8.2zm21.2-.2c-4.4 3-1.8 11.4 3.6 11.4 1.8 0 6.2-4.6 6.2-6.5 0-1.9-4.4-6.5-6.2-6.5-.8 0-2.4.7-3.6 1.6z"/>
</svg>
