<?xml version="1.0" standalone="no"?>
<!DOCTYPE svg PUBLIC "-//W3C//DTD SVG 20010904//EN"
 "http://www.w3.org/TR/2001/REC-SVG-20010904/DTD/svg10.dtd">
<svg version="1.0" xmlns="http://www.w3.org/2000/svg"
 width="1000.000000pt" height="1000.000000pt" viewBox="0 0 1000.000000 1000.000000"
 preserveAspectRatio="xMidYMid meet">

<g transform="translate(0.000000,1000.000000) scale(0.100000,-0.100000)"
fill="#000000" stroke="none">
<path d="M2145 5508 c-40 -14 -82 -54 -88 -84 -2 -14 2 -81 9 -150 17 -171 10
-186 -94 -200 -48 -6 -52 -9 -52 -34 0 -25 4 -28 52 -34 104 -14 111 -29 94
-200 -7 -69 -11 -136 -9 -150 10 -50 86 -96 159 -96 31 0 34 3 34 29 0 26 -4
29 -44 35 -77 12 -81 23 -66 185 7 76 10 151 6 166 -4 15 -21 35 -42 47 l-36
21 29 12 c51 22 58 56 43 217 l-13 141 23 19 c12 10 40 21 61 24 35 6 39 10
39 35 0 27 -3 29 -37 28 -21 0 -51 -5 -68 -11z"/>
<path d="M7740 5491 c0 -25 4 -29 39 -35 21 -3 49 -14 61 -24 l23 -19 -13
-147 c-13 -142 -13 -148 7 -174 11 -15 33 -33 49 -41 l29 -15 -32 -8 c-62 -16
-68 -39 -54 -209 15 -173 12 -183 -65 -195 -40 -6 -44 -9 -44 -35 0 -26 3 -29
34 -29 73 0 149 46 159 96 2 13 -1 79 -8 146 -7 69 -9 132 -5 144 13 32 48 53
102 60 44 6 48 9 48 34 0 25 -4 28 -48 34 -54 7 -89 28 -102 60 -4 12 -2 75 5
144 7 67 10 133 8 146 -10 50 -86 96 -159 96 -31 0 -34 -3 -34 -29z"/>
<path d="M3140 5066 l0 -376 120 0 120 0 0 90 0 90 98 0 c117 0 161 11 208 52
59 52 77 99 82 215 5 120 -11 182 -61 233 -59 60 -78 64 -334 68 l-233 4 0
-376z m361 174 c16 -9 19 -22 19 -85 0 -87 -8 -95 -89 -95 l-51 0 0 95 0 95
51 0 c28 0 59 -5 70 -10z"/>
<path d="M3850 5065 l0 -375 120 0 120 0 0 163 1 162 18 -50 c10 -27 42 -99
70 -160 l50 -110 130 -3 130 -3 -94 192 -94 192 80 160 c45 88 85 171 90 184
l9 23 -128 0 -127 0 -58 -123 c-31 -67 -61 -135 -66 -152 -7 -21 -10 16 -10
123 l-1 152 -120 0 -120 0 0 -375z"/>
<path d="M4560 5064 l0 -375 253 3 c289 3 301 7 344 88 21 39 24 56 21 125 -4
96 -27 137 -96 167 l-44 20 28 14 c40 21 61 51 75 107 25 105 -18 194 -105
216 -26 6 -135 11 -260 11 l-216 0 0 -376z m348 204 c7 -7 12 -26 12 -43 0
-43 -16 -55 -72 -55 l-48 0 0 55 0 55 48 0 c26 0 53 -5 60 -12z m30 -310 c11
-23 11 -33 0 -55 -12 -26 -19 -28 -76 -31 l-62 -3 0 61 0 61 62 -3 c57 -3 64
-5 76 -30z"/>
<path d="M6960 5269 l0 -151 -34 30 c-66 57 -151 66 -235 22 -81 -41 -121
-117 -121 -231 0 -93 15 -134 68 -189 85 -88 204 -94 288 -15 20 19 38 35 40
35 2 0 4 -18 4 -40 0 -38 2 -40 30 -40 l30 0 0 365 0 365 -35 0 -35 0 0 -151z
m-79 -162 c52 -34 81 -99 77 -172 -7 -115 -66 -185 -158 -185 -56 0 -104 29
-134 80 -30 50 -30 170 0 220 46 78 144 105 215 57z"/>
<path d="M5498 5347 c-65 -19 -113 -53 -153 -112 -45 -67 -58 -124 -53 -242 4
-112 24 -166 85 -228 103 -106 292 -112 400 -13 49 46 79 96 66 109 -5 5 -22
11 -38 14 -27 5 -32 2 -53 -34 -31 -56 -89 -85 -168 -85 -134 1 -216 98 -217
259 -1 94 20 153 73 206 94 94 250 87 305 -14 l18 -34 39 15 c21 8 38 19 38
23 0 21 -71 96 -111 116 -57 30 -164 39 -231 20z"/>
<path d="M6121 5186 c-95 -31 -154 -123 -155 -241 0 -89 17 -137 67 -192 68
-74 189 -93 284 -45 83 43 123 118 123 232 0 81 -21 144 -63 188 -55 60 -170
85 -256 58z m170 -79 c49 -32 74 -88 74 -167 0 -120 -59 -190 -160 -190 -66 0
-112 29 -142 90 -46 90 -20 217 56 267 47 32 125 32 172 0z"/>
<path d="M7346 5186 c-96 -36 -147 -108 -154 -219 -5 -87 8 -140 48 -195 45
-62 99 -87 190 -87 84 0 141 23 179 71 27 34 26 38 -5 53 -23 10 -30 8 -60
-18 -38 -34 -86 -46 -146 -38 -69 9 -113 56 -132 140 l-6 27 190 0 190 0 0 61
c0 81 -36 150 -97 186 -54 31 -141 40 -197 19z m151 -73 c24 -11 42 -30 54
-57 31 -68 35 -66 -132 -66 l-151 0 6 28 c22 92 132 139 223 95z"/>
<path d="M2367 4789 c-16 -12 -27 -30 -27 -44 0 -31 46 -67 74 -59 27 8 46 32
46 59 0 51 -53 76 -93 44z"/>
<path d="M2580 4792 c-14 -11 -22 -29 -22 -47 0 -28 31 -65 56 -65 29 0 56 32
56 65 0 24 -7 39 -22 49 -29 20 -41 20 -68 -2z"/>
<path d="M2792 4794 c-44 -30 -18 -114 36 -114 18 0 62 46 62 65 0 19 -44 65
-62 65 -8 0 -24 -7 -36 -16z"/>
</g>
</svg>
